<?xml version="1.0" standalone="no"?>
<!DOCTYPE svg PUBLIC "-//W3C//DTD SVG 20010904//EN"
 "http://www.w3.org/TR/2001/REC-SVG-20010904/DTD/svg10.dtd">
<svg version="1.0" xmlns="http://www.w3.org/2000/svg"
 width="512.000000pt" height="512.000000pt" viewBox="0 0 512.000000 512.000000"
 preserveAspectRatio="xMidYMid meet">
<metadata>
Created by potrace 1.14, written by Peter Selinger 2001-2017
</metadata>
<g transform="translate(0.000000,512.000000) scale(0.100000,-0.100000)"
fill="#000000" stroke="none">
<path d="M478 4738 c-3 -11 -2 -732 1 -790 1 -15 44 -16 539 -17 295 0 558 0
584 -1 l47 0 -4 -1142 c-3 -1156 -4 -1192 -31 -1353 -16 -98 -68 -220 -94
-220 -32 0 -91 150 -104 270 -2 17 -4 145 -5 287 l-1 256 -706 0 -706 0 5
-337 c3 -185 8 -352 11 -371 49 -268 109 -426 213 -558 156 -196 430 -340 728
-381 91 -13 390 -5 481 12 39 7 80 12 90 10 122 -24 217 -32 364 -28 91 2 175
6 186 8 12 3 38 8 58 11 188 30 379 108 514 211 45 34 155 150 195 204 103
142 183 357 212 568 3 21 7 52 10 68 13 87 18 222 19 520 l2 330 287 3 287 2
0 -965 0 -965 730 0 730 0 0 2190 0 2190 -730 0 -730 0 -2 -852 -3 -853 -275
-1 c-151 0 -280 1 -285 3 -7 2 -10 291 -10 853 l0 850 -1301 0 c-1033 0 -1303
-3 -1306 -12z"/>
</g>
</svg>
