<?xml version="1.0" encoding="utf-8"?>
<!-- Generator: Adobe Illustrator 25.4.1, SVG Export Plug-In . SVG Version: 6.00 Build 0)  -->
<svg version="1.1" xmlns="http://www.w3.org/2000/svg" xmlns:xlink="http://www.w3.org/1999/xlink" x="0px" y="0px"
	 viewBox="0 0 2000 2000" style="enable-background:new 0 0 2000 2000;" xml:space="preserve">
<style type="text/css">
	.st0{fill:#CCCCCC;}
	.st1{fill:#B3B3B3;}
	.st2{fill:url(#SVGID_1_);}
	.st3{fill:#1A1A1A;}
</style>
<g id="computer">
	<g>
		<rect x="526.49" y="824.89" class="st0" width="348.37" height="364.99"/>
		<path class="st1" d="M868.85,1200H532.5c-3.32,0-6.01-2.69-6.01-6.01v-14.23h348.37v14.23C874.86,1197.31,872.17,1200,868.85,1200
			z"/>
		<linearGradient id="SVGID_1_" gradientUnits="userSpaceOnUse" x1="700.6746" y1="1159.5046" x2="700.6746" y2="1179.7523">
			<stop  offset="0.299" style="stop-color:#CCCCCC"/>
			<stop  offset="0.4224" style="stop-color:#C8C8C8"/>
			<stop  offset="0.5471" style="stop-color:#BCBCBC"/>
			<stop  offset="0.6726" style="stop-color:#A8A8A8"/>
			<stop  offset="0.7985" style="stop-color:#8B8B8B"/>
			<stop  offset="0.9236" style="stop-color:#676767"/>
			<stop  offset="1" style="stop-color:#4D4D4D"/>
		</linearGradient>
		<rect x="526.49" y="1159.5" class="st2" width="348.37" height="20.25"/>
	</g>
	<g>
		<path class="st3" d="M1380,20v797.36H20V20H1380 M1390.83,0H9.17C4.1,0,0,4.1,0,9.17v819.02c0,5.06,4.1,9.17,9.17,9.17h1381.67
			c5.06,0,9.17-4.1,9.17-9.17V9.17C1400,4.1,1395.9,0,1390.83,0L1390.83,0z"/>
	</g>
</g>
<g id="phone">
	<path class="st3" d="M530.68,0h-61.18h-6.8H137.29h-18.57h-49.4C31.09,0,0,29.86,0,66.57v1066.86c0,36.71,31.09,66.57,69.32,66.57
		h210.72h19.24h1.44h19.24h210.72c38.22,0,69.32-29.86,69.32-66.57V66.57C600,29.86,568.91,0,530.68,0z M469.51,19.86
		c17.8,0,61.18,0,61.18,0c26.86,0,48.64,20.91,48.64,46.71v1066.86c0,25.8-21.77,46.71-48.64,46.71H406.7h-86.74h-39.92h-72.09
		H69.32c-26.86,0-48.64-20.91-48.64-46.71V66.57c0-25.8,21.77-46.71,48.64-46.71c0,0,60.79,0,67.98,0H469.51z"/>
</g>
</svg>
