<svg xmlns="http://www.w3.org/2000/svg" viewBox="0 0 100 100"><g id="github"><path d="M100,54c-.18,1.59-.34,3.17-.54,4.75a49,49,0,0,1-6.88,19.38A51.12,51.12,0,0,1,76.84,94.53,49.09,49.09,0,0,1,66,99.78c-2.11.73-3.57-.39-3.58-2.67,0-4.47,0-8.93,0-13.4a14.6,14.6,0,0,0-1.73-7.79c-.42-.7-1-1.32-1.46-2,2-.38,3.9-.64,5.8-1.14,5.11-1.32,9.67-3.63,12.78-8.2a24.47,24.47,0,0,0,3.78-11.22A29.33,29.33,0,0,0,81.43,44a18.47,18.47,0,0,0-4-8.34,1.68,1.68,0,0,1-.36-1.84c1.35-4.15.78-8.22-.72-12.2a1,1,0,0,0-.73-.49,8.5,8.5,0,0,0-5,1c-2.52,1.22-5,2.62-7.46,3.89a2.17,2.17,0,0,1-1.44.25,46.17,46.17,0,0,0-23.46,0,2.16,2.16,0,0,1-1.52-.3,35.39,35.39,0,0,0-10.17-4.71l-.19-.05c-2.29-.48-2.71-.21-3.37,2.06a18,18,0,0,0,0,11,1.25,1.25,0,0,1-.22,1c-4.12,4.8-5.1,10.49-4.58,16.63A29.67,29.67,0,0,0,21,62.58a18,18,0,0,0,10.64,9.15c2.89,1,6,1.59,9,2.37,0-.15,0,0,0,0a11,11,0,0,0-2.8,5.93,1.17,1.17,0,0,1-.46.78c-3.48,1.34-7,2-10.4-.11a10.92,10.92,0,0,1-3.62-4,10.67,10.67,0,0,0-6.21-5.17A9,9,0,0,0,14,71.41c-.72,0-1,.59-.47,1.2A6,6,0,0,0,15,74.17c2.63,1.55,4.1,4,5.31,6.72A12.71,12.71,0,0,0,23,85.38a11.19,11.19,0,0,0,7.43,2.83c2.32.1,4.66,0,7.1,0a2,2,0,0,1,0,.47c0,2.7.07,5.4.09,8.1s-1.53,3.74-4,2.87C21,95.15,11.64,86.6,5.43,74.52A50.9,50.9,0,0,1,.32,45.44a50.19,50.19,0,0,1,12.12-28A47.61,47.61,0,0,1,39.29,1.2C54.84-2,69.05,1.22,81.48,11.46a50.07,50.07,0,0,1,17.62,30c.34,1.79.48,3.62.71,5.44,0,.36.13.71.19,1.06Z" transform="translate(0 0)" style="fill:#fff"/></g><g id="instagram"><path d="M75.71,100H24.17l-1.26-.17a25.69,25.69,0,0,1-14.76-7A25.49,25.49,0,0,1,.07,75.08c-.14-2.85,0-5.71,0-8.56Q0,48.21,0,29.89A43.93,43.93,0,0,1,.55,20.8,25.83,25.83,0,0,1,7.14,8.13,25.25,25.25,0,0,1,20.19.68C21.46.4,22.75.22,24,0H75.85C76.91.15,78,.25,79,.47a26,26,0,0,1,21,25.39c0,3.47,0,7,0,10.42,0,12.24,0,24.48,0,36.71a27,27,0,0,1-2,10.87A25.6,25.6,0,0,1,80,99.28C78.58,99.63,77.13,99.77,75.71,100ZM50.16,8.58H26.32a16.61,16.61,0,0,0-6.87,1.3C12.75,12.87,9,18,8.66,25.4c-.2,4.22-.05,8.47-.05,12.71,0,12-.06,24,0,36,0,6.47,3,11.44,8.41,14.89a17.21,17.21,0,0,0,9.58,2.54c4.06,0,8.13,0,12.2,0H60.64c3.62,0,7.23,0,10.85,0a24.89,24.89,0,0,0,8.31-1A17.42,17.42,0,0,0,91.4,75.68c.19-2.94.11-5.9.12-8.85,0-6.4,0-12.81,0-19.21s0-12.85,0-19.28a24.31,24.31,0,0,0-1-8A17.41,17.41,0,0,0,74.5,8.59C66.39,8.53,58.27,8.58,50.16,8.58Z" transform="translate(0 0)" style="fill:#fff"/><path d="M50.08,74.92a24.89,24.89,0,1,1,24.83-25A24.9,24.9,0,0,1,50.08,74.92Zm.06-7.6A17.29,17.29,0,1,0,32.76,50.13,17.33,17.33,0,0,0,50.14,67.32Z" transform="translate(0 0)" style="fill:#fff"/><path d="M71.94,22.33a5.72,5.72,0,0,1,5.63-5.73,5.76,5.76,0,1,1,0,11.51A5.7,5.7,0,0,1,71.94,22.33Z" transform="translate(0 0)" style="fill:#fff"/></g><g id="linkedin"><path d="M0,91.2V8.72c.13-.59.23-1.19.39-1.78A9,9,0,0,1,9.6,0Q50.06,0,90.51,0a9.38,9.38,0,0,1,5.85,1.83c2.67,2,3.64,4.81,3.64,8q0,39.18,0,78.37c0,1.2-.08,2.4-.16,3.6a8.83,8.83,0,0,1-7,7.85c-.5.11-1,.2-1.5.3H8.8A4.84,4.84,0,0,0,8,99.75,8.91,8.91,0,0,1,.28,92.6C.21,92.13.09,91.67,0,91.2ZM55,42.42V39.48a2.63,2.63,0,0,0-2.91-2.89H41.25a2.68,2.68,0,0,0-3,3V86a2.75,2.75,0,0,0,3.06,3.09H51.86c2.14,0,3.14-1,3.14-3.18V62.29a16.58,16.58,0,0,1,1.67-7.35A8,8,0,0,1,65,50.24a7.3,7.3,0,0,1,6.83,6,24.8,24.8,0,0,1,.75,5.68c.08,8.08,0,16.16,0,24.24,0,2,1,3,3,3H86.57c2.07,0,3.17-1,3.16-3.1,0-9.51,0-19-.19-28.53a30.87,30.87,0,0,0-2.09-11.05,15.57,15.57,0,0,0-9.2-9.39,24.07,24.07,0,0,0-10.68-1.14,16.11,16.11,0,0,0-8.49,2.84C57.62,39.85,56.34,41.2,55,42.42ZM14.39,62.87V85.82c0,2.24,1,3.29,3.27,3.29h9.77c2.72,0,3.7-1,3.7-3.7V58q0-9,0-18.07c0-2.23-1.08-3.3-3.28-3.31H17.59c-2.19,0-3.2,1-3.2,3.22ZM33.5,21.62A10.78,10.78,0,1,0,22.66,32.4,10.84,10.84,0,0,0,33.5,21.62Z" transform="translate(0 0)" style="fill:#fff"/></g><g id="cv"><path d="M0,49.54a27.26,27.26,0,0,1,1.78-9.67A28.31,28.31,0,0,1,7,31.22,25,25,0,0,1,15.33,25a26.18,26.18,0,0,1,11.23-2.32A24.46,24.46,0,0,1,39.42,26a21,21,0,0,1,8.08,8.49l-8,5.54a12.93,12.93,0,0,0-3.57-4.81,13.22,13.22,0,0,0-4.71-2.51,17.7,17.7,0,0,0-4.92-.72,14,14,0,0,0-6.87,1.6,15.32,15.32,0,0,0-4.9,4.17,17.8,17.8,0,0,0-2.92,5.76,22.37,22.37,0,0,0-1,6.38,20.79,20.79,0,0,0,1.14,6.86A18.71,18.71,0,0,0,15,62.56a15.47,15.47,0,0,0,5,4,14,14,0,0,0,6.41,1.48,16.39,16.39,0,0,0,5.09-.84,14.38,14.38,0,0,0,4.78-2.65,12.25,12.25,0,0,0,3.42-4.71l8.57,4.94a16.21,16.21,0,0,1-5.2,6.83A26.12,26.12,0,0,1,35,75.87a28.94,28.94,0,0,1-8.88,1.45,23.3,23.3,0,0,1-10.55-2.39,26.51,26.51,0,0,1-8.23-6.38A30.4,30.4,0,0,1,1.93,59.6,27.56,27.56,0,0,1,0,49.54Z" transform="translate(0 0)" style="fill:#fff"/><path d="M60,23.06,74.58,64.49,89,23.06h11L79.59,76.94H69.5L49,23.06Z" transform="translate(0 0)" style="fill:#fff"/></g><g id="react"><path d="M28.22,5.3H32a.39.39,0,0,0,.2.08,17,17,0,0,1,2.46.6,28.19,28.19,0,0,1,6.89,3.41,56.53,56.53,0,0,1,8.18,6.7c.33.32.29.33.62,0,1-1,2-1.91,3.06-2.81a44.5,44.5,0,0,1,8.11-5.66,22.22,22.22,0,0,1,5.61-2.1A3.49,3.49,0,0,0,68,5.3h3.74a.51.51,0,0,0,.29.1,9.76,9.76,0,0,1,7.16,5.95,19.27,19.27,0,0,1,1.6,7.06,39.32,39.32,0,0,1-.27,7.27,65,65,0,0,1-1.35,7.19c-.11.48-.11.48.36.62l.08,0a57.13,57.13,0,0,1,7.16,2.58,34.27,34.27,0,0,1,7.57,4.39,17.28,17.28,0,0,1,4,4.39,10.34,10.34,0,0,1,1.61,5,9.93,9.93,0,0,1-1.34,5.38A16.48,16.48,0,0,1,94.48,60,35.48,35.48,0,0,1,86,64.88a59.71,59.71,0,0,1-6.55,2.29c-.36.11-.38.14-.29.5.12.54.25,1.08.37,1.62A51.82,51.82,0,0,1,80.77,78a31.19,31.19,0,0,1-.25,6.69,16.85,16.85,0,0,1-1.73,5.45,9.62,9.62,0,0,1-6.68,5.12.34.34,0,0,0-.2.09h-4.1a.38.38,0,0,0-.24-.09A16.3,16.3,0,0,1,65,94.54a29.57,29.57,0,0,1-6.65-3.39,56.37,56.37,0,0,1-8-6.6c-.32-.3-.32-.3-.63,0-1,1-2,1.87-3,2.75a44.79,44.79,0,0,1-7.58,5.4,22.28,22.28,0,0,1-6.54,2.49c-.12,0-.24,0-.33.11H28.05c-.08-.09-.19-.08-.29-.11a9.67,9.67,0,0,1-2.61-1,10.51,10.51,0,0,1-4.5-5.29,21.23,21.23,0,0,1-1.48-7.68,34.67,34.67,0,0,1,.14-4.44c.14-1.59.35-3.16.62-4.72s.56-2.89.9-4.31c.12-.49.12-.49-.33-.62l-1-.31a50.18,50.18,0,0,1-10.59-4.5,23.77,23.77,0,0,1-5.67-4.46A13.48,13.48,0,0,1,.89,54.39a9.77,9.77,0,0,1-.84-5.08,10.7,10.7,0,0,1,2-5,18.88,18.88,0,0,1,4.86-4.7,39.2,39.2,0,0,1,7.71-4.07c2-.79,3.95-1.46,6-2.06.39-.12.39-.12.3-.52-.23-1-.46-2-.67-3.07a51.42,51.42,0,0,1-1-8,30.81,30.81,0,0,1,.23-5.34,18.12,18.12,0,0,1,1.45-5.26,9.85,9.85,0,0,1,7-5.85C28,5.39,28.14,5.4,28.22,5.3ZM49.46,66.59c1.88,0,3.22,0,4.57-.07,1.51,0,3-.15,4.53-.22a.9.9,0,0,0,.8-.44A130.34,130.34,0,0,0,68,50.75a.9.9,0,0,0,0-.87c-1.76-3.62-3.67-7.16-5.76-10.6q-1.42-2.34-2.94-4.61a.61.61,0,0,0-.54-.31c-1.41-.07-2.81-.19-4.22-.23-1.8-.05-3.61-.09-5.42-.07-2.59,0-5.19.11-7.77.29a.74.74,0,0,0-.65.37c-.62,1-1.26,1.92-1.87,2.9A124.4,124.4,0,0,0,32,49.9a.87.87,0,0,0,0,.84c.53,1,1,2,1.54,3a125.66,125.66,0,0,0,7.05,12,1,1,0,0,0,.87.5c1,0,2,.13,3.06.17C46.34,66.53,48.16,66.63,49.46,66.59Zm-26-45.53a38.44,38.44,0,0,0,.35,4.35,58.88,58.88,0,0,0,1.21,6.44c.1.4.13.42.51.33,2.3-.52,4.62-.93,7-1.28,1.86-.28,3.72-.52,5.6-.68a.71.71,0,0,0,.58-.32,104.09,104.09,0,0,1,8-10.09c.24-.26.25-.27,0-.53-.69-.65-1.37-1.29-2.07-1.92a44.65,44.65,0,0,0-6.12-4.68,22.51,22.51,0,0,0-5.38-2.56,9.9,9.9,0,0,0-3.5-.5,5.16,5.16,0,0,0-3.54,1.56,8.19,8.19,0,0,0-1.86,3.44A22.26,22.26,0,0,0,23.5,21.06ZM95.65,50.3A5.55,5.55,0,0,0,95.12,48a9.44,9.44,0,0,0-1.76-2.52,19.7,19.7,0,0,0-4.23-3.27,47,47,0,0,0-10.9-4.53c-.37-.11-.37-.1-.49.28a105.7,105.7,0,0,1-4.56,11.9,1,1,0,0,0,0,.89,105,105,0,0,1,4.1,10.49c.16.48.31,1,.47,1.45.11.31.13.32.45.24l.17-.05c1.78-.52,3.54-1.12,5.26-1.81A33.82,33.82,0,0,0,91.2,57a14.15,14.15,0,0,0,3.35-3.38A6.2,6.2,0,0,0,95.65,50.3ZM23.5,80.1A22.3,22.3,0,0,0,24,84.92a10.16,10.16,0,0,0,1.59,3.88,5.07,5.07,0,0,0,3.24,2.11,8.58,8.58,0,0,0,3.87-.25,21.55,21.55,0,0,0,6-2.81,50.88,50.88,0,0,0,8-6.49l.12-.12a.19.19,0,0,0,0-.31l-.15-.17q-2.64-2.92-5-6.05c-1-1.3-2-2.62-2.92-4a.62.62,0,0,0-.5-.3c-.74-.07-1.47-.16-2.21-.25-1.68-.18-3.35-.42-5-.69-1.85-.3-3.68-.66-5.5-1.06-.3-.07-.31-.07-.39.25-.24,1-.46,2-.65,2.93A45.59,45.59,0,0,0,23.5,80.1ZM76.49,20a24.07,24.07,0,0,0-.33-3.75,12.13,12.13,0,0,0-1.23-3.7,5.3,5.3,0,0,0-3.59-2.83,8,8,0,0,0-3.44.08A18.69,18.69,0,0,0,62.68,12a46.66,46.66,0,0,0-9.34,7.28c-.3.29-.3.3,0,.6.93,1,1.86,2.11,2.75,3.19q2.74,3.32,5.21,6.84a.69.69,0,0,0,.53.34c1.33.1,2.65.27,4,.44q3.19.42,6.35,1c.76.15,1.51.32,2.26.48.4.09.43.07.53-.32s.16-.67.23-1A48.74,48.74,0,0,0,76.49,20Zm0,60.55a45.44,45.44,0,0,0-.39-5.66c-.29-2.1-.71-4.16-1.19-6.22-.08-.32-.1-.33-.43-.26-2.21.48-4.44.91-6.68,1.24-1.82.27-3.64.52-5.47.68-.83.08-.83.07-1.32.76a103.09,103.09,0,0,1-7.68,9.62c-.34.38-.35.31,0,.69a55.29,55.29,0,0,0,6,5.11,28.22,28.22,0,0,0,6.23,3.54,10.85,10.85,0,0,0,5,.9,5.07,5.07,0,0,0,3.14-1.43,7.91,7.91,0,0,0,1.92-3.39A20.17,20.17,0,0,0,76.5,80.59ZM21.9,63c.23,0,.25,0,.35-.32a103.83,103.83,0,0,1,4.58-11.94.87.87,0,0,0,0-.8A105.7,105.7,0,0,1,22.25,38c-.12-.39-.12-.39-.52-.27a54,54,0,0,0-7.39,2.71,28.63,28.63,0,0,0-6,3.55,12.66,12.66,0,0,0-3.06,3.3,5.44,5.44,0,0,0-.42,5.28,8.94,8.94,0,0,0,1.83,2.63,21.45,21.45,0,0,0,5.4,3.92,50.35,50.35,0,0,0,9.67,3.84ZM55.71,29.77a.91.91,0,0,0-.24-.45Q53,26.08,50.3,23c-.29-.33-.29-.33-.6,0l-.06.07q-2.73,3-5.2,6.32c-.06.09-.17.17-.14.35C48.09,29.62,51.87,29.63,55.71,29.77ZM35.27,35a2.22,2.22,0,0,0-.83,0c-2.59.34-5.15.8-7.7,1.36-.38.08-.39.09-.27.46q1.28,4,2.88,7.88a.42.42,0,0,0,.2.28C31.31,41.65,33.21,38.32,35.27,35ZM70.44,55.59c-1.76,3.41-3.64,6.7-5.65,9.92a.23.23,0,0,0,0,.12.26.26,0,0,0,.21,0l1.59-.22c2.23-.31,4.44-.73,6.64-1.2.43-.1.43-.11.29-.54a.93.93,0,0,0,0-.13C72.65,61,71.72,58.5,70.71,56A.77.77,0,0,0,70.44,55.59ZM26.36,64.12a90.07,90.07,0,0,0,9,1.56c-2.1-3.35-4-6.68-5.81-10.18C28.3,58.37,27.27,61.2,26.36,64.12ZM70.45,45.07a.71.71,0,0,0,.22-.36c1-2.46,1.94-5,2.75-7.5.25-.8.32-.68-.51-.86-2.53-.56-5.08-1-7.65-1.33a.72.72,0,0,0-.51,0C66.79,38.33,68.69,41.64,70.45,45.07ZM55.68,70.89c-1.92,0-3.81.11-5.7.11s-3.8-.1-5.73-.11a1.92,1.92,0,0,0,.29.46c1.63,2.14,3.33,4.22,5.12,6.22.33.36.33.37.67,0l.06-.06c1.79-2,3.5-4.08,5.12-6.23A.52.52,0,0,0,55.68,70.89Z" transform="translate(0 0)" style="fill:#fff"/><path d="M50,59.32a9,9,0,1,1,8.93-9A9,9,0,0,1,50,59.32Z" transform="translate(0 0)" style="fill:#fff"/></g><g id="javscript"><path d="M49.92,99.94c-12.75,0-25.51-.13-38.26.06A11.41,11.41,0,0,1,0,88.38C.1,63,.05,37.52,0,12.1c0-4,1.13-7.37,4.4-9.87A10.59,10.59,0,0,1,11,0q38.91,0,77.8,0C95.42,0,100,4.67,100,11.23q0,39,0,78.05A10.66,10.66,0,0,1,89.14,99.93C76.07,100,63,99.94,49.92,99.94ZM5,50.1c0,12.49,0,25,0,37.48a9.69,9.69,0,0,0,.88,4.16C7.25,94.43,9.81,95,12.58,95H73.25c4.89,0,9.79,0,14.68,0,2.67,0,5.26-.6,6.49-3.29a11.26,11.26,0,0,0,.91-4.49q.08-37.08,0-74.16c0-.43,0-.86,0-1.29C95,7.29,92.62,5,88.08,5Q50,4.95,11.92,5a8.49,8.49,0,0,0-3.68.92C5.59,7.25,5,9.78,5,12.45Q5,31.28,5,50.1Z" transform="translate(0 0)" style="fill:#fff"/><path d="M86.69,51c-2.11,1.33-4.16,2.59-6.18,3.89-1,.61-1.34-.14-1.82-.69a6.18,6.18,0,0,0-5.81-2.42c-1.68.25-3.1.9-3.58,2.74a4.29,4.29,0,0,0,1.75,4.66c1.53,1,3.25,1.63,4.85,2.51,3,1.64,6.08,3.17,8.93,5C91,70.79,91.92,83.9,82.09,88.17c-7,3-16.28,1.66-21.77-3.63a23.5,23.5,0,0,1-2.39-3c-.64-.84-.37-1.45.52-1.94,1.74-1,3.49-1.89,5.18-2.94a1.27,1.27,0,0,1,2,.43,10.11,10.11,0,0,0,7.15,4.48,7.74,7.74,0,0,0,5.56-1.09c2.79-1.94,2.87-5.42-.06-7.15a81,81,0,0,0-7.38-3.58,21.65,21.65,0,0,1-8.41-6.26c-4.89-6.3-2-16.17,5.45-18.79A18.55,18.55,0,0,1,77.61,44C81.78,44.76,84.58,47.27,86.69,51Z" transform="translate(0 0)" style="fill:#fff"/><path d="M42.84,44.23c2.91,0,5.59,0,8.27.05a1.45,1.45,0,0,1,1,1c0,8.36,0,16.72-.1,25.08a64.21,64.21,0,0,1-.66,9.91c-.9,5.27-5.19,8.78-10.52,9.28s-10-.47-13.76-4.35c-3-3.1-2.94-3.76.6-6l.13-.09c1.17-.66,2.36-1.89,3.48-1.83S33,79,34.09,79.7A9.55,9.55,0,0,0,38,81.34c3,.27,4.85-1.69,4.85-4.84q0-15,0-30.08Z" transform="translate(0 0)" style="fill:#fff"/></g><g id="scrollBar"><path d="M25,4A21,21,0,0,1,46,25V75A21,21,0,0,1,4,75V25A21,21,0,0,1,25,4m0-4h0A25,25,0,0,0,0,25V75a25,25,0,0,0,25,25h0A25,25,0,0,0,50,75V25A25,25,0,0,0,25,0Z" transform="translate(0 0)" style="fill:#fff"/></g><g id="scrollWheel"><rect width="30" height="45" rx="15" style="fill:#fff"/></g></svg>