<svg xmlns="http://www.w3.org/2000/svg" viewBox="0 0 100 100"><g id="Layer_2" data-name="Layer 2"><rect width="100" height="100"/></g><g id="github"><path d="M100,54c-.18,1.59-.34,3.17-.54,4.75a49,49,0,0,1-6.88,19.38A51.12,51.12,0,0,1,76.84,94.53,49.09,49.09,0,0,1,66,99.78c-2.11.73-3.57-.39-3.58-2.67,0-4.47,0-8.93,0-13.4a14.6,14.6,0,0,0-1.73-7.79c-.42-.7-1-1.32-1.46-2,2-.38,3.9-.64,5.8-1.14,5.11-1.32,9.67-3.63,12.78-8.2a24.47,24.47,0,0,0,3.78-11.22A29.33,29.33,0,0,0,81.43,44a18.47,18.47,0,0,0-4-8.34,1.68,1.68,0,0,1-.36-1.84c1.35-4.15.78-8.22-.72-12.2a1,1,0,0,0-.73-.49,8.5,8.5,0,0,0-5,1c-2.52,1.22-5,2.62-7.46,3.89a2.17,2.17,0,0,1-1.44.25,46.17,46.17,0,0,0-23.46,0,2.16,2.16,0,0,1-1.52-.3,35.39,35.39,0,0,0-10.17-4.71l-.19-.05c-2.29-.48-2.71-.21-3.37,2.06a18,18,0,0,0,0,11,1.25,1.25,0,0,1-.22,1c-4.12,4.8-5.1,10.49-4.58,16.63A29.67,29.67,0,0,0,21,62.58a18,18,0,0,0,10.64,9.15c2.89,1,6,1.59,9,2.37,0-.15,0,0,0,0a11,11,0,0,0-2.8,5.93,1.17,1.17,0,0,1-.46.78c-3.48,1.34-7,2-10.4-.11a10.92,10.92,0,0,1-3.62-4,10.67,10.67,0,0,0-6.21-5.17A9,9,0,0,0,14,71.41c-.72,0-1,.59-.47,1.2A6,6,0,0,0,15,74.17c2.63,1.55,4.1,4,5.31,6.72A12.71,12.71,0,0,0,23,85.38a11.19,11.19,0,0,0,7.43,2.83c2.32.1,4.66,0,7.1,0a2,2,0,0,1,0,.47c0,2.7.07,5.4.09,8.1s-1.53,3.74-4,2.87C21,95.15,11.64,86.6,5.43,74.52A50.9,50.9,0,0,1,.32,45.44a50.19,50.19,0,0,1,12.12-28A47.61,47.61,0,0,1,39.29,1.2C54.84-2,69.05,1.22,81.48,11.46a50.07,50.07,0,0,1,17.62,30c.34,1.79.48,3.62.71,5.44,0,.36.13.71.19,1.06Z" transform="translate(0 0)" style="fill:#fff"/></g><g id="instagram"><path d="M75.71,100H24.17l-1.26-.17a25.69,25.69,0,0,1-14.76-7A25.49,25.49,0,0,1,.07,75.08c-.14-2.85,0-5.71,0-8.56Q0,48.21,0,29.89A43.93,43.93,0,0,1,.55,20.8,25.83,25.83,0,0,1,7.14,8.13,25.25,25.25,0,0,1,20.19.68C21.46.4,22.75.22,24,0H75.85C76.91.15,78,.25,79,.47a26,26,0,0,1,21,25.39c0,3.47,0,7,0,10.42,0,12.24,0,24.48,0,36.71a27,27,0,0,1-2,10.87A25.6,25.6,0,0,1,80,99.28C78.58,99.63,77.13,99.77,75.71,100ZM50.16,8.58H26.32a16.61,16.61,0,0,0-6.87,1.3C12.75,12.87,9,18,8.66,25.4c-.2,4.22-.05,8.47-.05,12.71,0,12-.06,24,0,36,0,6.47,3,11.44,8.41,14.89a17.21,17.21,0,0,0,9.58,2.54c4.06,0,8.13,0,12.2,0H60.64c3.62,0,7.23,0,10.85,0a24.89,24.89,0,0,0,8.31-1A17.42,17.42,0,0,0,91.4,75.68c.19-2.94.11-5.9.12-8.85,0-6.4,0-12.81,0-19.21s0-12.85,0-19.28a24.31,24.31,0,0,0-1-8A17.41,17.41,0,0,0,74.5,8.59C66.39,8.53,58.27,8.58,50.16,8.58Z" transform="translate(0 0)" style="fill:#fff"/><path d="M50.08,74.92a24.89,24.89,0,1,1,24.83-25A24.9,24.9,0,0,1,50.08,74.92Zm.06-7.6A17.29,17.29,0,1,0,32.76,50.13,17.33,17.33,0,0,0,50.14,67.32Z" transform="translate(0 0)" style="fill:#fff"/><path d="M71.94,22.33a5.72,5.72,0,0,1,5.63-5.73,5.76,5.76,0,1,1,0,11.51A5.7,5.7,0,0,1,71.94,22.33Z" transform="translate(0 0)" style="fill:#fff"/></g><g id="linkedin"><path d="M0,91.2V8.72c.13-.59.23-1.19.39-1.78A9,9,0,0,1,9.6,0Q50.06,0,90.51,0a9.38,9.38,0,0,1,5.85,1.83c2.67,2,3.64,4.81,3.64,8q0,39.18,0,78.37c0,1.2-.08,2.4-.16,3.6a8.83,8.83,0,0,1-7,7.85c-.5.11-1,.2-1.5.3H8.8A4.84,4.84,0,0,0,8,99.75,8.91,8.91,0,0,1,.28,92.6C.21,92.13.09,91.67,0,91.2ZM55,42.42V39.48a2.63,2.63,0,0,0-2.91-2.89H41.25a2.68,2.68,0,0,0-3,3V86a2.75,2.75,0,0,0,3.06,3.09H51.86c2.14,0,3.14-1,3.14-3.18V62.29a16.58,16.58,0,0,1,1.67-7.35A8,8,0,0,1,65,50.24a7.3,7.3,0,0,1,6.83,6,24.8,24.8,0,0,1,.75,5.68c.08,8.08,0,16.16,0,24.24,0,2,1,3,3,3H86.57c2.07,0,3.17-1,3.16-3.1,0-9.51,0-19-.19-28.53a30.87,30.87,0,0,0-2.09-11.05,15.57,15.57,0,0,0-9.2-9.39,24.07,24.07,0,0,0-10.68-1.14,16.11,16.11,0,0,0-8.49,2.84C57.62,39.85,56.34,41.2,55,42.42ZM14.39,62.87V85.82c0,2.24,1,3.29,3.27,3.29h9.77c2.72,0,3.7-1,3.7-3.7V58q0-9,0-18.07c0-2.23-1.08-3.3-3.28-3.31H17.59c-2.19,0-3.2,1-3.2,3.22ZM33.5,21.62A10.78,10.78,0,1,0,22.66,32.4,10.84,10.84,0,0,0,33.5,21.62Z" transform="translate(0 0)" style="fill:#fff"/></g><g id="cv"><path d="M0,49.54a27.26,27.26,0,0,1,1.78-9.67A28.31,28.31,0,0,1,7,31.22,25,25,0,0,1,15.33,25a26.18,26.18,0,0,1,11.23-2.32A24.46,24.46,0,0,1,39.42,26a21,21,0,0,1,8.08,8.49l-8,5.54a12.93,12.93,0,0,0-3.57-4.81,13.22,13.22,0,0,0-4.71-2.51,17.7,17.7,0,0,0-4.92-.72,14,14,0,0,0-6.87,1.6,15.32,15.32,0,0,0-4.9,4.17,17.8,17.8,0,0,0-2.92,5.76,22.37,22.37,0,0,0-1,6.38,20.79,20.79,0,0,0,1.14,6.86A18.71,18.71,0,0,0,15,62.56a15.47,15.47,0,0,0,5,4,14,14,0,0,0,6.41,1.48,16.39,16.39,0,0,0,5.09-.84,14.38,14.38,0,0,0,4.78-2.65,12.25,12.25,0,0,0,3.42-4.71l8.57,4.94a16.21,16.21,0,0,1-5.2,6.83A26.12,26.12,0,0,1,35,75.87a28.94,28.94,0,0,1-8.88,1.45,23.3,23.3,0,0,1-10.55-2.39,26.51,26.51,0,0,1-8.23-6.38A30.4,30.4,0,0,1,1.93,59.6,27.56,27.56,0,0,1,0,49.54Z" transform="translate(0 0)" style="fill:#fff"/><path d="M60,23.06,74.58,64.49,89,23.06h11L79.59,76.94H69.5L49,23.06Z" transform="translate(0 0)" style="fill:#fff"/></g></svg>