<svg xmlns="http://www.w3.org/2000/svg" viewBox="0 0 500 190"><g id="joe"><path d="M5.57,163.43A57.33,57.33,0,0,0,21,170.34a76.14,76.14,0,0,0,22.14,2.92q14.47,0,23.4-4.61a30.94,30.94,0,0,0,13.64-14q4.74-9.33,6.41-23.3a279.24,279.24,0,0,0,1.67-32.65V0h19.5V95.13a305.38,305.38,0,0,1-2.23,38.48q-2.24,17.38-8.63,30a44.58,44.58,0,0,1-19.22,19.5Q64.9,190,43.73,190a91.57,91.57,0,0,1-24.23-2.92A68.51,68.51,0,0,1,0,178.31Z" style="fill:#848484"/><path d="M235.79,190q-20.74,0-37.62-7.92a89.47,89.47,0,0,1-29-21.5A99.82,99.82,0,0,1,150.32,130a95.36,95.36,0,0,1-6.64-35,93.94,93.94,0,0,1,6.92-35.76A96.63,96.63,0,0,1,170.1,28.9,94.6,94.6,0,0,1,199.55,7.78,86.24,86.24,0,0,1,236.06,0q20.74,0,37.62,8.18a90.76,90.76,0,0,1,28.9,21.9,103.62,103.62,0,0,1,18.67,30.61A94.59,94.59,0,0,1,321,131a98.14,98.14,0,0,1-19.36,30.35,91.3,91.3,0,0,1-29.31,21A87.38,87.38,0,0,1,235.79,190ZM163,95a83.47,83.47,0,0,0,5.26,29.42,79.09,79.09,0,0,0,14.93,25.07,72.37,72.37,0,0,0,23.1,17.42,71,71,0,0,0,59.74-.26,72.51,72.51,0,0,0,23-18,79.81,79.81,0,0,0,14.52-25.2,84.35,84.35,0,0,0,5-28.5,82.7,82.7,0,0,0-5.26-29.29A79.9,79.9,0,0,0,288.2,40.64a72,72,0,0,0-23.1-17.42,71.28,71.28,0,0,0-59.32.27,70.75,70.75,0,0,0-23,17.81A83.64,83.64,0,0,0,163,95Z" style="fill:#848484"/><path d="M500,173.41V190H366.21V0H497.48V16.59H385.84V85.1h97.33v15.79H385.84v72.52Z" style="fill:#848484"/></g><g id="han"><path d="M139.44,0V190H122.26V101.15H17.43V190H0V0H17.43V84.56H122.26V0Z" style="fill:#848484"/><path d="M238.55,0h14.69l73.45,190H308.27l-22.09-59.41H205.36L183.27,190H164.59ZM280.7,115.87,245.77,21.94l-34.93,93.93Z" style="fill:#848484"/><path d="M369.52,34.52V190H352.09V0h14.44l116,158.42V.27H500V190H483.81Z" style="fill:#848484"/></g></svg>