<?xml version="1.0" encoding="utf-8"?>
<!-- Generator: Adobe Illustrator 25.4.1, SVG Export Plug-In . SVG Version: 6.00 Build 0)  -->
<svg version="1.1" id="desktop" xmlns="http://www.w3.org/2000/svg" xmlns:xlink="http://www.w3.org/1999/xlink" x="0px" y="0px"
	 viewBox="0 0 2000 2000" style="enable-background:new 0 0 2000 2000;" xml:space="preserve">
<style type="text/css">
	.st0{fill:#CCCCCC;}
	.st1{fill:#B3B3B3;}
	.st2{fill:url(#SVGID_1_);}
</style>
<rect x="525.92" y="791.33" class="st0" width="348.27" height="408.67"/>
<g>
	<path class="st1" d="M868.17,1200H531.93c-3.32,0-6.01-2.69-6.01-6.01v-14.4h348.27v14.4C874.18,1197.31,871.49,1200,868.17,1200z"
		/>
	<linearGradient id="SVGID_1_" gradientUnits="userSpaceOnUse" x1="700.052" y1="1159.1688" x2="700.052" y2="1179.5844">
		<stop  offset="0.299" style="stop-color:#CCCCCC"/>
		<stop  offset="0.4224" style="stop-color:#C8C8C8"/>
		<stop  offset="0.5471" style="stop-color:#BCBCBC"/>
		<stop  offset="0.6726" style="stop-color:#A8A8A8"/>
		<stop  offset="0.7985" style="stop-color:#8B8B8B"/>
		<stop  offset="0.9236" style="stop-color:#676767"/>
		<stop  offset="1" style="stop-color:#4D4D4D"/>
	</linearGradient>
	<rect x="525.92" y="1159.17" class="st2" width="348.27" height="20.42"/>
</g>
<g>
	<path d="M1375.67,20c2.39,0,4.33,1.94,4.33,4.33v751.33c0,2.39-1.94,4.33-4.33,4.33H24.33c-2.39,0-4.33-1.94-4.33-4.33V24.33
		c0-2.39,1.94-4.33,4.33-4.33H1375.67 M1375.67,0H24.33C10.89,0,0,10.89,0,24.33v751.33C0,789.11,10.89,800,24.33,800h1351.33
		c13.44,0,24.33-10.89,24.33-24.33V24.33C1400,10.89,1389.11,0,1375.67,0L1375.67,0z"/>
</g>
</svg>
